<svg width="70" height="70" viewBox="0 0 70 70" fill="none" xmlns="http://www.w3.org/2000/svg">
<rect width="60" height="60" fill="#372409"/>
<path d="M5 5H65V65H5V5Z" fill="#372409"/>
<path d="M10 10H70V70H10V10Z" fill="#372409"/>
<path d="M19.29 30.21C19.29 31.95 18.69 33.4 17.49 34.56C16.31 35.7 14.5 36.27 12.06 36.27H8.04V45H5.31V24.09H12.06C14.42 24.09 16.21 24.66 17.43 25.8C18.67 26.94 19.29 28.41 19.29 30.21ZM12.06 34.02C13.58 34.02 14.7 33.69 15.42 33.03C16.14 32.37 16.5 31.43 16.5 30.21C16.5 27.63 15.02 26.34 12.06 26.34H8.04V34.02H12.06ZM21.663 36.72C21.663 35.04 22.003 33.57 22.683 32.31C23.363 31.03 24.293 30.04 25.473 29.34C26.673 28.64 28.003 28.29 29.463 28.29C30.903 28.29 32.153 28.6 33.213 29.22C34.273 29.84 35.063 30.62 35.583 31.56V28.56H38.343V45H35.583V41.94C35.043 42.9 34.233 43.7 33.153 44.34C32.093 44.96 30.853 45.27 29.433 45.27C27.973 45.27 26.653 44.91 25.473 44.19C24.293 43.47 23.363 42.46 22.683 41.16C22.003 39.86 21.663 38.38 21.663 36.72ZM35.583 36.75C35.583 35.51 35.333 34.43 34.833 33.51C34.333 32.59 33.653 31.89 32.793 31.41C31.953 30.91 31.023 30.66 30.003 30.66C28.983 30.66 28.053 30.9 27.213 31.38C26.373 31.86 25.703 32.56 25.203 33.48C24.703 34.4 24.453 35.48 24.453 36.72C24.453 37.98 24.703 39.08 25.203 40.02C25.703 40.94 26.373 41.65 27.213 42.15C28.053 42.63 28.983 42.87 30.003 42.87C31.023 42.87 31.953 42.63 32.793 42.15C33.653 41.65 34.333 40.94 34.833 40.02C35.333 39.08 35.583 37.99 35.583 36.75ZM45.6865 31.23C46.1665 30.29 46.8465 29.56 47.7265 29.04C48.6265 28.52 49.7165 28.26 50.9965 28.26V31.08H50.2765C47.2165 31.08 45.6865 32.74 45.6865 36.06V45H42.9565V28.56H45.6865V31.23ZM57.4779 30.81V40.5C57.4779 41.3 57.6479 41.87 57.9879 42.21C58.3279 42.53 58.9179 42.69 59.7579 42.69H61.7679V45H59.3079C57.7879 45 56.6479 44.65 55.8879 43.95C55.1279 43.25 54.7479 42.1 54.7479 40.5V30.81H52.6179V28.56H54.7479V24.42H57.4779V28.56H61.7679V30.81H57.4779ZM65.9456 45.18C65.4256 45.18 64.9856 45 64.6256 44.64C64.2656 44.28 64.0856 43.84 64.0856 43.32C64.0856 42.8 64.2656 42.36 64.6256 42C64.9856 41.64 65.4256 41.46 65.9456 41.46C66.4456 41.46 66.8656 41.64 67.2056 42C67.5656 42.36 67.7456 42.8 67.7456 43.32C67.7456 43.84 67.5656 44.28 67.2056 44.64C66.8656 45 66.4456 45.18 65.9456 45.18Z" fill="#FDEEDA"/>
</svg>
