<svg width="18" height="21" viewBox="0 0 18 21" fill="none" xmlns="http://www.w3.org/2000/svg">
<path d="M14.5 7C16.433 7 18 5.433 18 3.5C18 1.567 16.433 0 14.5 0C12.567 0 11 1.567 11 3.5C11 5.433 12.567 7 14.5 7Z" fill="#533813"/>
<path d="M10 15.5H8C8 17.0675 6.65 18.35 5 18.35C3.35 18.35 2 17.0675 2 15.5C2 13.9325 3.35 12.65 5 12.65V10.75C2.24 10.75 0 12.878 0 15.5C0 18.122 2.24 20.25 5 20.25C7.76 20.25 10 18.122 10 15.5ZM13 12.175H11.14L12.81 8.6885C13.42 7.425 12.44 6 10.96 6H5.76C4.95 6 4.22 6.4465 3.89 7.14L3.22 8.85L5.14 9.3535L5.79 7.9H8L6.17 11.795C5.57 13.0585 6.56 14.55 8.02 14.55H13V19.3H15V14.075C15 13.03 14.1 12.175 13 12.175Z" fill="#533813"/>
</svg>
