<svg width="15" height="24" viewBox="0 0 15 24" fill="none" xmlns="http://www.w3.org/2000/svg">
<path d="M10.1786 10.4868L6.96429 16.779V12.5842H4.82143L8.03571 6.29211V10.4868H10.1786ZM12.8571 2.09737H2.14286V3.14605H12.8571V2.09737ZM12.8571 19.925H2.14286V20.9737H12.8571V19.925ZM12.8571 0C14.0357 0 15 0.943816 15 2.09737V20.9737C15 22.1272 14.0357 23.0711 12.8571 23.0711H2.14286C0.964286 23.0711 0 22.1272 0 20.9737V2.09737C0 0.943816 0.964286 0 2.14286 0H12.8571ZM2.14286 17.8276H12.8571V5.24342H2.14286V17.8276Z" fill="#533813"/>
</svg>
