<svg width="20" height="14" viewBox="0 0 20 14" fill="none" xmlns="http://www.w3.org/2000/svg">
<path d="M18 1.95754V11.7453H2V1.95754H18ZM18 0H2C0.9 0 0.00999999 0.880894 0.00999999 1.95754L0 11.7453C0 12.8219 0.9 13.7028 2 13.7028H18C19.1 13.7028 20 12.8219 20 11.7453V1.95754C20 0.880894 19.1 0 18 0ZM9 2.93631H11V4.89386H9V2.93631ZM9 5.87263H11V7.83017H9V5.87263ZM6 2.93631H8V4.89386H6V2.93631ZM6 5.87263H8V7.83017H6V5.87263ZM3 5.87263H5V7.83017H3V5.87263ZM3 2.93631H5V4.89386H3V2.93631ZM6 8.80894H14V10.7665H6V8.80894ZM12 5.87263H14V7.83017H12V5.87263ZM12 2.93631H14V4.89386H12V2.93631ZM15 5.87263H17V7.83017H15V5.87263ZM15 2.93631H17V4.89386H15V2.93631Z" fill="#533813"/>
</svg>
