<svg width="20" height="28" viewBox="0 0 20 28" fill="none" xmlns="http://www.w3.org/2000/svg">
<path d="M13.9422 9.66809H6.22514C5.51774 9.66809 4.93896 10.2346 4.93896 10.927V26.0334C4.93896 26.7258 5.51774 27.2923 6.22514 27.2923H13.9422C14.6496 27.2923 15.2283 26.7258 15.2283 26.0334V10.927C15.2283 10.2346 14.6496 9.66809 13.9422 9.66809ZM12.656 24.7745H7.51131V12.1858H12.656V24.7745Z" fill="#533813"/>
<path d="M9.92923 20.0415C10.6396 20.0415 11.2154 19.4778 11.2154 18.7825C11.2154 18.0871 10.6396 17.5234 9.92923 17.5234C9.2189 17.5234 8.64307 18.0871 8.64307 18.7825C8.64307 19.4778 9.2189 20.0415 9.92923 20.0415Z" fill="#533813"/>
<path d="M3.63987 7.61613L5.45338 9.39113C6.62379 8.25815 8.23151 7.55319 10.0064 7.55319C11.7814 7.55319 13.3891 8.25815 14.5595 9.39113L16.373 7.61613C14.7395 6.01737 12.4887 5.03546 10.0064 5.03546C7.52412 5.03546 5.27331 6.01737 3.63987 7.61613ZM10.0064 0C6.09646 0 2.55949 1.5484 0 4.05354L1.81351 5.82854C3.90997 3.78918 6.80386 2.51773 10.0064 2.51773C13.209 2.51773 16.1029 3.78918 18.1865 5.84113L20 4.06613C17.4534 1.5484 13.9164 0 10.0064 0Z" fill="#533813"/>
</svg>
