<svg width="20" height="24" viewBox="0 0 20 24" fill="none" xmlns="http://www.w3.org/2000/svg">
<path d="M12.7778 12.6044L13.7778 16.824L10 14.5946L6.22222 16.824L7.22222 12.6153L3.88889 9.79858L8.28889 9.42882L10 5.45936L11.7111 9.41795L16.1111 9.78771L12.7778 12.6044ZM10 2.38168L17.7778 5.76387V10.8752C17.7778 15.7908 14.4667 20.3258 10 21.6743C5.53333 20.3258 2.22222 15.7908 2.22222 10.8752V5.76387L10 2.38168ZM10 0L0 4.35009V10.8752C0 16.911 4.26667 22.5552 10 23.9255C15.7333 22.5552 20 16.911 20 10.8752V4.35009L10 0Z" fill="#533813"/>
</svg>
