<svg width="20" height="26" viewBox="0 0 20 26" fill="none" xmlns="http://www.w3.org/2000/svg">
<path d="M17.5 8.40568H16.25V6.00405C16.25 2.68982 13.45 0 10 0C6.55 0 3.75 2.68982 3.75 6.00405V8.40568H2.5C1.125 8.40568 0 9.48641 0 10.8073V22.8154C0 24.1363 1.125 25.217 2.5 25.217H17.5C18.875 25.217 20 24.1363 20 22.8154V10.8073C20 9.48641 18.875 8.40568 17.5 8.40568ZM6.25 6.00405C6.25 4.01071 7.925 2.40162 10 2.40162C12.075 2.40162 13.75 4.01071 13.75 6.00405V8.40568H6.25V6.00405ZM17.5 22.8154H2.5V10.8073H17.5V22.8154ZM10 19.213C11.375 19.213 12.5 18.1322 12.5 16.8114C12.5 15.4905 11.375 14.4097 10 14.4097C8.625 14.4097 7.5 15.4905 7.5 16.8114C7.5 18.1322 8.625 19.213 10 19.213Z" fill="#533813"/>
</svg>
