<svg width="20" height="14" viewBox="0 0 20 14" fill="none" xmlns="http://www.w3.org/2000/svg">
<path d="M8.92857 12.5143H11.0714V13.9126H8.92857V12.5143ZM10 2.72658C8.02857 2.72658 6.42857 4.29262 6.42857 6.2222C6.42857 8.31958 8.92857 9.71782 8.92857 11.1161C9.42857 11.1161 11.0714 11.1161 11.0714 11.1161C11.0714 9.71782 13.5714 8.31958 13.5714 6.2222C13.5714 4.29262 11.9714 2.72658 10 2.72658ZM1.42857 6.92133C1.42857 4.61422 2.38571 2.51685 3.94286 0.992756L2.92857 0C1.11429 1.77578 0 4.22271 0 6.92133C0 9.61995 1.11429 12.0669 2.92857 13.8427L3.94286 12.8499C2.38571 11.3258 1.42857 9.22844 1.42857 6.92133ZM20 6.92133C20 4.22271 18.8857 1.77578 17.0714 0L16.0571 0.992756C17.6143 2.51685 18.5714 4.61422 18.5714 6.92133C18.5714 9.22844 17.6143 11.3258 16.0571 12.8499L17.0714 13.8427C18.8857 12.0669 20 9.61995 20 6.92133ZM4.94286 11.8711L5.95714 10.8784C4.92857 9.85765 4.28571 8.4594 4.28571 6.92133C4.28571 5.38326 4.92857 3.98501 5.95714 2.96429L4.94286 1.97153C3.65714 3.24394 2.85714 4.99175 2.85714 6.92133C2.85714 8.85091 3.65714 10.5987 4.94286 11.8711ZM15.7143 6.92133C15.7143 8.4594 15.0714 9.85765 14.0429 10.8784L15.0571 11.8711C16.3429 10.5987 17.1429 8.85091 17.1429 6.92133C17.1429 4.99175 16.3429 3.24394 15.0571 1.97153L14.0429 2.96429C15.0714 3.98501 15.7143 5.38326 15.7143 6.92133Z" fill="#533813"/>
</svg>
