<svg width="20" height="14" viewBox="0 0 20 14" fill="none" xmlns="http://www.w3.org/2000/svg">
<path d="M17.5 9.78771H17V8.80894C17 8.00635 16.33 7.34078 15.5 7.34078C14.67 7.34078 14 8.00635 14 8.80894V9.78771H13.5C13.22 9.78771 13 10.003 13 10.2771V13.2134C13 13.4875 13.22 13.7028 13.5 13.7028H17.5C17.78 13.7028 18 13.4875 18 13.2134V10.2771C18 10.003 17.78 9.78771 17.5 9.78771ZM14.75 8.80894C14.75 8.40764 15.09 8.07486 15.5 8.07486C15.91 8.07486 16.25 8.40764 16.25 8.80894V9.78771H14.75V8.80894ZM12 11.7453L10 13.7028L5.76 9.55281L0 3.92487C2.6 1.49752 6.12 0 10 0C13.88 0 17.4 1.49752 20 3.92487L17.51 6.36201H15C13.34 6.36201 12 7.67357 12 9.29833V11.7453Z" fill="#533813"/>
</svg>
