<svg width="35" height="35" viewBox="0 0 35 35" fill="none" xmlns="http://www.w3.org/2000/svg">
<path d="M17.5 0C12.7455 0 12.1516 0.021875 10.2856 0.105C8.42188 0.1925 7.15312 0.485625 6.0375 0.91875C4.86931 1.35761 3.81105 2.04632 2.93672 2.93672C2.04555 3.81042 1.35672 4.86886 0.91875 6.0375C0.485625 7.15312 0.191406 8.42188 0.105 10.2856C0.0175 12.1527 0 12.7466 0 17.5C0 22.2545 0.021875 22.8484 0.105 24.7144C0.1925 26.577 0.485625 27.8469 0.91875 28.9625C1.35799 30.1305 2.04664 31.1887 2.93672 32.0633C3.81083 32.954 4.86914 33.6427 6.0375 34.0812C7.15422 34.5133 8.42297 34.8086 10.2856 34.895C12.1527 34.9825 12.7466 35 17.5 35C22.2545 35 22.8484 34.9781 24.7144 34.895C26.577 34.8075 27.8469 34.5122 28.9625 34.0812C30.1302 33.6415 31.1883 32.9529 32.0633 32.0633C32.9543 31.1894 33.6431 30.131 34.0812 28.9625C34.5133 27.8469 34.8086 26.577 34.895 24.7144C34.9825 22.8473 35 22.2534 35 17.5C35 12.7455 34.9781 12.1516 34.895 10.2856C34.8075 8.42297 34.5122 7.15203 34.0812 6.0375C33.6418 4.86959 32.9532 3.81146 32.0633 2.93672C31.1898 2.04524 30.1313 1.35637 28.9625 0.91875C27.8469 0.485625 26.577 0.191406 24.7144 0.105C22.8473 0.0175 22.2534 0 17.5 0ZM17.5 3.15C22.1703 3.15 22.7281 3.17297 24.5733 3.25391C26.2795 3.33375 27.2048 3.61703 27.8206 3.85875C28.6409 4.17594 29.2206 4.55438 29.8364 5.16578C30.4467 5.77828 30.8262 6.36016 31.1423 7.17938C31.3819 7.79516 31.6673 8.72156 31.745 10.4278C31.8281 12.273 31.8467 12.8275 31.8467 17.5C31.8467 22.1725 31.8248 22.7281 31.7395 24.5733C31.6498 26.2795 31.3655 27.2048 31.1248 27.8206C30.7989 28.6409 30.427 29.2206 29.8145 29.8364C29.2488 30.4155 28.5614 30.8616 27.802 31.1423C27.1895 31.3819 26.2489 31.6673 24.5427 31.745C22.6844 31.8281 22.1375 31.8467 17.4562 31.8467C12.7739 31.8467 12.227 31.8248 10.3698 31.7395C8.6625 31.6498 7.72188 31.3655 7.10938 31.1248C6.27922 30.7989 5.70937 30.427 5.09797 29.8145C4.51258 29.2527 4.0636 28.5643 3.78547 27.802C3.54484 27.1895 3.26266 26.2489 3.17297 24.5427C3.10734 22.7052 3.08437 22.1375 3.08437 17.4781C3.08437 12.8177 3.10734 12.2489 3.17297 10.3895C3.26266 8.68328 3.54484 7.74375 3.78547 7.13125C4.09172 6.3 4.48437 5.73125 5.09797 5.11766C5.70937 4.50625 6.27922 4.1125 7.10938 3.80625C7.72188 3.56563 8.64172 3.28125 10.348 3.19375C12.2073 3.12813 12.7542 3.10625 17.4344 3.10625L17.5 3.15ZM17.5 8.51375C16.3199 8.51361 15.1513 8.74595 14.0609 9.1975C12.9706 9.64905 11.9799 10.311 11.1454 11.1454C10.311 11.9799 9.64905 12.9706 9.1975 14.0609C8.74595 15.1513 8.51361 16.3199 8.51375 17.5C8.51375 22.4656 12.5388 26.4862 17.5 26.4862C22.4656 26.4862 26.4862 22.4612 26.4862 17.5C26.4862 12.5344 22.4612 8.51375 17.5 8.51375ZM17.5 23.3341C16.7339 23.3342 15.9752 23.1834 15.2674 22.8902C14.5596 22.5971 13.9164 22.1673 13.3748 21.6256C12.8331 21.0838 12.4035 20.4406 12.1104 19.7327C11.8174 19.0248 11.6667 18.2661 11.667 17.5C11.6669 16.734 11.8177 15.9754 12.1107 15.2676C12.4038 14.5599 12.8335 13.9168 13.3751 13.3751C13.9168 12.8335 14.5599 12.4038 15.2676 12.1107C15.9754 11.8177 16.734 11.6669 17.5 11.667C18.266 11.6669 19.0246 11.8177 19.7324 12.1107C20.4401 12.4038 21.0832 12.8335 21.6249 13.3751C22.1665 13.9168 22.5962 14.5599 22.8893 15.2676C23.1823 15.9754 23.3331 16.734 23.333 17.5C23.3331 18.266 23.1823 19.0246 22.8893 19.7324C22.5962 20.4401 22.1665 21.0832 21.6249 21.6249C21.0832 22.1665 20.4401 22.5962 19.7324 22.8893C19.0246 23.1823 18.266 23.3331 17.5 23.333V23.3341ZM28.9417 8.15938C28.9417 9.31875 28 10.2594 26.8417 10.2594C25.6823 10.2594 24.7417 9.31766 24.7417 8.15938C24.7593 7.61415 24.9883 7.09715 25.3802 6.71769C25.7721 6.33823 26.2962 6.12607 26.8417 6.12607C27.3872 6.12607 27.9113 6.33823 28.3033 6.71769C28.6952 7.09715 28.9241 7.61415 28.9417 8.15938Z" fill="#1D1100"/>
</svg>
