<svg width="35" height="36" viewBox="0 0 35 36" fill="none" xmlns="http://www.w3.org/2000/svg">
<path d="M29.8995 5.11809C26.6105 1.81156 22.2312 0 17.5704 0C7.96734 0 0.140704 7.82663 0.140704 17.4296C0.140704 20.5075 0.949749 23.4975 2.46231 26.1357L0 35.1759L9.23367 32.7487C11.7839 34.1382 14.6508 34.8769 17.5704 34.8769C27.1734 34.8769 35 27.0502 35 17.4472C35 12.7864 33.1884 8.40703 29.8995 5.11809ZM17.5704 31.9221C14.9673 31.9221 12.4171 31.2186 10.1834 29.8995L9.65578 29.5829L4.16834 31.0251L5.62814 25.6784L5.27638 25.1332C3.83417 22.8291 3.0603 20.1558 3.0603 17.4296C3.0603 9.44472 9.56784 2.93719 17.5528 2.93719C21.4221 2.93719 25.0628 4.44975 27.7889 7.19347C30.5327 9.93719 32.0276 13.5779 32.0276 17.4472C32.0628 25.4322 25.5553 31.9221 17.5704 31.9221ZM25.5201 21.0879C25.0804 20.8769 22.9347 19.8216 22.5477 19.6633C22.1432 19.5226 21.8618 19.4523 21.5628 19.8744C21.2638 20.3141 20.4372 21.299 20.191 21.5804C19.9447 21.8794 19.6809 21.9146 19.2412 21.6859C18.8015 21.4749 17.3945 21 15.7412 19.5226C14.4397 18.3618 13.5779 16.9372 13.3141 16.4975C13.0678 16.0578 13.2789 15.8291 13.5075 15.6005C13.701 15.407 13.9472 15.0905 14.1583 14.8442C14.3693 14.598 14.4573 14.4045 14.598 14.1231C14.7387 13.8241 14.6683 13.5779 14.5628 13.3668C14.4573 13.1558 13.5779 11.01 13.2261 10.1307C12.8744 9.28643 12.505 9.39196 12.2412 9.37437C11.9774 9.37437 11.696 9.37437 11.397 9.37437C11.098 9.37437 10.6407 9.4799 10.2362 9.9196C9.84924 10.3593 8.72362 11.4146 8.72362 13.5603C8.72362 15.706 10.2889 17.7814 10.5 18.0628C10.7111 18.3618 13.5779 22.7588 17.9397 24.6407C18.9774 25.098 19.7864 25.3618 20.4196 25.5553C21.4573 25.8894 22.407 25.8367 23.1633 25.7312C24.0075 25.608 25.7487 24.6759 26.1005 23.6558C26.4698 22.6357 26.4698 21.7739 26.3467 21.5804C26.2236 21.3869 25.9598 21.299 25.5201 21.0879Z" fill="#1D1100"/>
</svg>
